<?xml version="1.0" encoding="utf-8"?>
<!-- Generator: Adobe Illustrator 18.0.0, SVG Export Plug-In . SVG Version: 6.00 Build 0)  -->
<!DOCTYPE svg PUBLIC "-//W3C//DTD SVG 1.1//EN" "http://www.w3.org/Graphics/SVG/1.1/DTD/svg11.dtd">
<svg version="1.1" id="Layer_1" xmlns="http://www.w3.org/2000/svg" xmlns:xlink="http://www.w3.org/1999/xlink" x="0px" y="0px"
	 viewBox="0 0 199.3 39.3" enable-background="new 0 0 199.3 39.3" xml:space="preserve">
<g>
	<path fill="#414042" d="M6.1,12.8h11.2v1h-10V24h9v1h-9v5.9h10.4v1H6.1V12.8z"/>
	<path fill="#414042" d="M31.2,16.3c-0.4-0.5-0.9-1.3-0.9-1.3s0.1,0.9,0.1,1.4v15.5h-1.1V12.5h0.3l12.3,15.9
		c0.4,0.5,0.9,1.3,0.9,1.3s-0.1-0.9-0.1-1.4V12.8h1.1v19.4h-0.3L31.2,16.3z"/>
	<path fill="#414042" d="M55,22.3c0-5.8,4.4-9.8,9.8-9.8c3.4,0,6,1.3,7.6,3.6l-0.9,0.6c-1.4-2-3.7-3.2-6.7-3.2
		c-4.9,0-8.6,3.7-8.6,8.8s3.7,8.8,8.6,8.8c3,0,5.4-1.2,7-3.4l0.9,0.6c-1.7,2.5-4.5,3.8-7.8,3.8C59.4,32.1,55,28.2,55,22.3z"/>
	<path fill="#414042" d="M89.7,12.5h0.3l7.8,19.4h-1.2l-1.5-3.7H84.6l-1.5,3.7H82L89.7,12.5z M94.8,27.2l-4.3-10.9
		c-0.3-0.7-0.6-1.7-0.6-1.7s-0.3,1.1-0.6,1.7L85,27.2H94.8z"/>
	<path fill="#414042" d="M110.9,16.3c-0.4-0.5-0.9-1.3-0.9-1.3s0.1,0.9,0.1,1.4v15.5H109V12.5h0.3l12.3,15.9
		c0.4,0.5,0.9,1.3,0.9,1.3s-0.1-0.9-0.1-1.4V12.8h1.1v19.4h-0.3L110.9,16.3z"/>
	<path fill="#414042" d="M140.2,13.8h-6.1v-1h13.3v1h-6.1v18.1h-1.2V13.8z"/>
	<path fill="#414042" d="M155.3,22.3c0-5.8,4.4-9.8,9.8-9.8s9.8,4,9.8,9.8c0,5.8-4.4,9.8-9.8,9.8S155.3,28.2,155.3,22.3z
		 M173.7,22.3c0-5-3.7-8.8-8.6-8.8c-4.9,0-8.6,3.7-8.6,8.8s3.7,8.8,8.6,8.8C170,31.1,173.7,27.4,173.7,22.3z"/>
	<path fill="#414042" d="M181.6,20.6l5.8-4.9c2-1.7,3.3-3.2,3.3-5c0-2.1-1.4-3.1-3.2-3.1c-1.9,0-3.3,1-4,3.2l-1-0.3
		c0.6-2.4,2.5-3.9,5-3.9c2.5,0,4.4,1.5,4.4,4.1c0,2-1.4,3.7-3.7,5.6L185,19c-0.5,0.5-1.3,0.9-1.3,0.9s0.8-0.1,1.4-0.1h7.2v1h-10.6
		V20.6z"/>
</g>
</svg>
